<svg width="16" height="16" viewBox="0 0 16 16" fill="none" xmlns="http://www.w3.org/2000/svg">
<path d="M7.26075 6.69387C7.457 6.88966 7.7229 6.99962 8.00012 6.99962C8.27734 6.99962 8.54324 6.88966 8.7395 6.69387L10.6939 4.73887C10.7909 4.64183 10.868 4.52661 10.9205 4.3998C10.973 4.27299 11.0001 4.13707 11.0001 3.99981C11.0001 3.86255 10.973 3.72663 10.9205 3.59982C10.868 3.47301 10.7909 3.35779 10.6939 3.26075L8.7395 1.30575C8.54324 1.10996 8.27734 1 8.00012 1C7.7229 1 7.457 1.10996 7.26075 1.30575L5.30637 3.26075C5.20929 3.35779 5.13228 3.47301 5.07974 3.59982C5.0272 3.72663 5.00016 3.86255 5.00016 3.99981C5.00016 4.13707 5.0272 4.27299 5.07974 4.3998C5.13228 4.52661 5.20929 4.64183 5.30637 4.73887L7.26075 6.69387ZM6.01075 3.96762L7.96575 2.01325C7.97406 2.005 7.98529 2.00038 7.997 2.00038C8.0087 2.00038 8.01993 2.005 8.02825 2.01325L9.98325 3.96762C9.99106 3.97615 9.9954 3.9873 9.9954 3.99887C9.9954 4.01044 9.99106 4.02159 9.98325 4.03012L8.032 5.987C8.02361 5.99509 8.0124 5.99962 8.00075 5.99962C7.98909 5.99962 7.97788 5.99509 7.9695 5.987L6.01325 4.032C6.00488 4.02337 6.00021 4.01182 6.00021 3.99981C6.00021 3.98779 6.00488 3.97625 6.01325 3.96762H6.01075ZM14.692 7.26075L12.7395 5.30575C12.5433 5.10999 12.2776 5.00005 12.0004 5.00005C11.7233 5.00005 11.4575 5.10999 11.2614 5.30575L9.30637 7.26075C9.11058 7.457 9.00062 7.7229 9.00062 8.00012C9.00062 8.27734 9.11058 8.54324 9.30637 8.7395L11.2614 10.6945C11.4575 10.8902 11.7233 11.0002 12.0004 11.0002C12.2776 11.0002 12.5433 10.8902 12.7395 10.6945L14.6945 8.7395C14.8903 8.54324 15.0002 8.27734 15.0002 8.00012C15.0002 7.7229 14.8903 7.457 14.6945 7.26075H14.692ZM13.9876 8.032L12.0326 9.987C12.0241 9.99481 12.0129 9.99915 12.0014 9.99915C11.9898 9.99915 11.9787 9.99481 11.9701 9.987L10.0151 8.032C10.007 8.02361 10.0025 8.0124 10.0025 8.00075C10.0025 7.98909 10.007 7.97788 10.0151 7.9695L11.9701 6.0145C11.9787 6.00668 11.9898 6.00234 12.0014 6.00234C12.0129 6.00234 12.0241 6.00668 12.0326 6.0145L13.9876 7.9695C13.9957 7.97788 14.0002 7.98909 14.0002 8.00075C14.0002 8.0124 13.9957 8.02361 13.9876 8.032ZM6.69387 7.26075L4.73887 5.30575C4.54272 5.10999 4.27693 5.00005 3.99981 5.00005C3.72269 5.00005 3.45689 5.10999 3.26075 5.30575L1.30575 7.26075C1.10996 7.457 1 7.7229 1 8.00012C1 8.27734 1.10996 8.54324 1.30575 8.7395L3.26075 10.6945C3.45689 10.8902 3.72269 11.0002 3.99981 11.0002C4.27693 11.0002 4.54272 10.8902 4.73887 10.6945L6.69387 8.7395C6.88966 8.54324 6.99962 8.27734 6.99962 8.00012C6.99962 7.7229 6.88966 7.457 6.69387 7.26075ZM5.987 8.032L4.032 9.987C4.02347 9.99481 4.01232 9.99915 4.00075 9.99915C3.98918 9.99915 3.97803 9.99481 3.9695 9.987L2.01262 8.032C2.00453 8.02361 2 8.0124 2 8.00075C2 7.98909 2.00453 7.97788 2.01262 7.9695L3.96762 6.01325C3.97615 6.00543 3.9873 6.00109 3.99887 6.00109C4.01044 6.00109 4.02159 6.00543 4.03012 6.01325L5.98512 7.96825C5.98944 7.9723 5.99292 7.97717 5.99535 7.98257C5.99779 7.98798 5.99913 7.99381 5.9993 7.99973C5.99948 8.00565 5.99848 8.01155 5.99637 8.01709C5.99426 8.02263 5.99107 8.02769 5.987 8.032ZM8.737 9.30637C8.54074 9.11058 8.27484 9.00062 7.99762 9.00062C7.7204 9.00062 7.4545 9.11058 7.25825 9.30637L5.30637 11.2614C5.20929 11.3584 5.13228 11.4736 5.07974 11.6004C5.0272 11.7273 5.00016 11.8632 5.00016 12.0004C5.00016 12.1377 5.0272 12.2736 5.07974 12.4004C5.13228 12.5272 5.20929 12.6425 5.30637 12.7395L7.26075 14.6945C7.457 14.8903 7.7229 15.0002 8.00012 15.0002C8.27734 15.0002 8.54324 14.8903 8.7395 14.6945L10.6939 12.7395C10.7909 12.6425 10.868 12.5272 10.9205 12.4004C10.973 12.2736 11.0001 12.1377 11.0001 12.0004C11.0001 11.8632 10.973 11.7273 10.9205 11.6004C10.868 11.4736 10.7909 11.3584 10.6939 11.2614L8.737 9.30637ZM9.987 12.0326L8.032 13.987C8.02368 13.9952 8.01245 13.9999 8.00075 13.9999C7.98904 13.9999 7.97781 13.9952 7.9695 13.987L6.01325 12.0326C6.00543 12.0241 6.00109 12.0129 6.00109 12.0014C6.00109 11.9898 6.00543 11.9787 6.01325 11.9701L7.96825 10.0151C7.97663 10.007 7.98784 10.0025 7.9995 10.0025C8.01115 10.0025 8.02236 10.007 8.03075 10.0151L9.98575 11.9701C9.99374 11.9785 9.9983 11.9896 9.99853 12.0011C9.99876 12.0127 9.99465 12.0239 9.987 12.0326Z" fill="#1C1C1C"/>
</svg>
