<svg width="22" height="28" viewBox="0 0 22 28" fill="none" xmlns="http://www.w3.org/2000/svg">
<path d="M17.0002 27.0003C17.0002 27.2655 16.8948 27.5198 16.7073 27.7074C16.5197 27.8949 16.2654 28.0003 16.0002 28.0003H6.00016C5.73495 28.0003 5.48059 27.8949 5.29306 27.7074C5.10552 27.5198 5.00016 27.2655 5.00016 27.0003C5.00016 26.735 5.10552 26.4807 5.29306 26.2932C5.48059 26.1056 5.73495 26.0003 6.00016 26.0003H16.0002C16.2654 26.0003 16.5197 26.1056 16.7073 26.2932C16.8948 26.4807 17.0002 26.735 17.0002 27.0003ZM22.0002 11.0003C22.0045 12.6673 21.6279 14.3133 20.8991 15.8127C20.1704 17.312 19.1087 18.625 17.7952 19.6515C17.5496 19.8398 17.3502 20.0817 17.2125 20.3588C17.0747 20.6359 17.0021 20.9408 17.0002 21.2503V22.0003C17.0002 22.5307 16.7894 23.0394 16.4144 23.4145C16.0393 23.7895 15.5306 24.0003 15.0002 24.0003H7.00016C6.46973 24.0003 5.96102 23.7895 5.58595 23.4145C5.21088 23.0394 5.00016 22.5307 5.00016 22.0003V21.2503C4.99996 20.9445 4.92965 20.6429 4.79465 20.3685C4.65965 20.0942 4.46355 19.8545 4.22141 19.6678C2.91133 18.6475 1.85049 17.3425 1.11916 15.8517C0.387832 14.3609 0.00518162 12.7233 0.000163562 11.0628C-0.0323364 5.10401 4.78266 0.144013 10.7352 0.000263046C12.2019 -0.0350811 13.6608 0.22333 15.0261 0.760285C16.3914 1.29724 17.6355 2.10189 18.6852 3.12688C19.7349 4.15186 20.5689 5.37647 21.1382 6.72862C21.7075 8.08078 22.0006 9.53315 22.0002 11.0003ZM20.0002 11.0003C20.0005 9.79984 19.7607 8.61148 19.2949 7.50512C18.8291 6.39877 18.1466 5.39679 17.2877 4.55815C16.4288 3.71952 15.4108 3.06118 14.2936 2.6219C13.1765 2.18261 11.9827 1.97125 10.7827 2.00026C5.90766 2.11526 1.97391 6.17401 2.00016 11.049C2.00464 12.4073 2.31802 13.7467 2.9166 14.9659C3.51518 16.1852 4.38327 17.2523 5.45516 18.0865C5.93697 18.4611 6.32668 18.9409 6.59448 19.4893C6.86227 20.0376 7.00104 20.64 7.00016 21.2503V22.0003H10.0002V16.414L6.29266 12.7078C6.10502 12.5201 5.99961 12.2656 5.99961 12.0003C5.99961 11.7349 6.10502 11.4804 6.29266 11.2928C6.4803 11.1051 6.7348 10.9997 7.00016 10.9997C7.26553 10.9997 7.52002 11.1051 7.70766 11.2928L11.0002 14.5865L14.2927 11.2928C14.3856 11.1999 14.4959 11.1262 14.6173 11.0759C14.7387 11.0256 14.8688 10.9997 15.0002 10.9997C15.1316 10.9997 15.2617 11.0256 15.3831 11.0759C15.5045 11.1262 15.6148 11.1999 15.7077 11.2928C15.8006 11.3857 15.8743 11.496 15.9246 11.6174C15.9748 11.7388 16.0007 11.8689 16.0007 12.0003C16.0007 12.1317 15.9748 12.2618 15.9246 12.3832C15.8743 12.5046 15.8006 12.6149 15.7077 12.7078L12.0002 16.414V22.0003H15.0002V21.2503C15.0013 20.6382 15.1423 20.0345 15.4125 19.4853C15.6826 18.9361 16.0748 18.4559 16.5589 18.0815C17.634 17.2413 18.503 16.1665 19.0994 14.9393C19.6958 13.712 20.0039 12.3648 20.0002 11.0003Z" fill="white"/>
</svg>
