<svg width="32" height="32" viewBox="0 0 32 32" fill="none" xmlns="http://www.w3.org/2000/svg">
<path d="M28.8648 26.5005C26.9611 23.2092 24.0273 20.8492 20.6036 19.7305C22.2971 18.7223 23.6129 17.1861 24.3489 15.3577C25.0848 13.5294 25.2002 11.51 24.6774 9.60967C24.1546 7.70936 23.0224 6.03321 21.4548 4.83863C19.8872 3.64404 17.9708 2.99707 15.9999 2.99707C14.0289 2.99707 12.1125 3.64404 10.5449 4.83863C8.97725 6.03321 7.84509 7.70936 7.32228 9.60967C6.79946 11.51 6.91489 13.5294 7.65083 15.3577C8.38678 17.1861 9.70256 18.7223 11.3961 19.7305C7.97235 20.848 5.0386 23.208 3.13485 26.5005C3.06504 26.6143 3.01873 26.741 2.99866 26.873C2.97859 27.005 2.98517 27.1397 3.01801 27.2692C3.05084 27.3986 3.10927 27.5201 3.18984 27.6266C3.27041 27.7331 3.3715 27.8224 3.48713 27.8892C3.60277 27.956 3.73061 27.9989 3.86311 28.0155C3.99561 28.0321 4.1301 28.022 4.25863 27.9858C4.38716 27.9495 4.50713 27.8879 4.61146 27.8046C4.71579 27.7212 4.80238 27.6178 4.8661 27.5005C7.2211 23.4305 11.3836 21.0005 15.9999 21.0005C20.6161 21.0005 24.7786 23.4305 27.1336 27.5005C27.1973 27.6178 27.2839 27.7212 27.3882 27.8046C27.4926 27.8879 27.6125 27.9495 27.7411 27.9858C27.8696 28.022 28.0041 28.0321 28.1366 28.0155C28.2691 27.9989 28.3969 27.956 28.5126 27.8892C28.6282 27.8224 28.7293 27.7331 28.8099 27.6266C28.8904 27.5201 28.9489 27.3986 28.9817 27.2692C29.0145 27.1397 29.0211 27.005 29.001 26.873C28.981 26.741 28.9347 26.6143 28.8648 26.5005ZM8.99985 12.0005C8.99985 10.616 9.41039 9.26262 10.1796 8.11148C10.9487 6.96034 12.042 6.06313 13.3211 5.53331C14.6001 5.0035 16.0076 4.86488 17.3655 5.13497C18.7234 5.40507 19.9706 6.07176 20.9496 7.05072C21.9286 8.02969 22.5953 9.27697 22.8653 10.6348C23.1354 11.9927 22.9968 13.4002 22.467 14.6793C21.9372 15.9583 21.04 17.0516 19.8888 17.8208C18.7377 18.5899 17.3843 19.0005 15.9999 19.0005C14.1439 18.9985 12.3646 18.2604 11.0523 16.948C9.73997 15.6357 9.00184 13.8564 8.99985 12.0005Z" fill="white"/>
</svg>
